<?xml version="1.0" standalone="no"?><!DOCTYPE svg PUBLIC "-//W3C//DTD SVG 1.1//EN" "http://www.w3.org/Graphics/SVG/1.1/DTD/svg11.dtd"><svg t="1666601438759" class="icon" viewBox="0 0 1024 1024" version="1.1" xmlns="http://www.w3.org/2000/svg" p-id="28961" xmlns:xlink="http://www.w3.org/1999/xlink" width="128" height="128"><path d="M869.56139 992.952238l-0.448112 0.256064-0.768192 0.32008c-16.004001 18.692673-38.473618 30.407602-63.11978 30.407602l-586.386597 0c-24.646162 0-47.115779-11.714929-63.631908-30.727682l0-0.256064-0.192048 0.256064C138.434609 974.003501 128.384096 947.180795 128.384096 918.437609L128.384096 105.562391c0-28.807202 10.050513-55.053763 26.566642-74.002501C171.722931 12.227057 194.192548 0 218.83871 0l399.587897 0c8.898225 0 17.732433 4.737184 23.941985 11.714929l243.452863 284.67917c6.72168 8.386097 9.794449 18.180545 9.794449 28.487122l0 0.576144 0 593.044261C895.615904 947.180795 885.565391 973.427357 869.56139 992.952238zM287.847962 832.016004l448.112028 0c17.668417 0 32.008002-14.339585 32.008002-32.008002s-14.339585-32.008002-32.008002-32.008002l-448.112028 0c-17.668417 0-32.008002 14.339585-32.008002 32.008002S270.179545 832.016004 287.847962 832.016004zM287.847962 639.967992l448.112028 0c17.668417 0 32.008002-14.339585 32.008002-32.008002 0-17.668417-14.339585-32.008002-32.008002-32.008002l-448.112028 0c-17.668417 0-32.008002 14.339585-32.008002 32.008002C255.83996 625.628407 270.179545 639.967992 287.847962 639.967992zM287.847962 383.903976c-17.668417 0-32.008002 14.339585-32.008002 32.008002s14.339585 32.008002 32.008002 32.008002l448.112028 0c17.668417 0 32.008002-14.339585 32.008002-32.008002s-14.339585-32.008002-32.008002-32.008002L287.847962 383.903976zM640.384096 126.87972l0 148.709177c0 11.650913 4.993248 22.917729 12.035009 30.663666L653.315329 307.468867c8.258065 8.322081 19.716929 13.379345 32.072018 13.379345l146.852713 0L640.384096 126.87972z" p-id="28962"></path></svg>