<?xml version="1.0" standalone="no"?><!DOCTYPE svg PUBLIC "-//W3C//DTD SVG 1.1//EN" "http://www.w3.org/Graphics/SVG/1.1/DTD/svg11.dtd"><svg t="1666601064852" class="icon" viewBox="0 0 1024 1024" version="1.1" xmlns="http://www.w3.org/2000/svg" p-id="5118" xmlns:xlink="http://www.w3.org/1999/xlink" width="128" height="128"><path d="M140.8 0h499.2l320 320v627.2a76.8 76.8 0 0 1-76.8 76.8H140.8a76.8 76.8 0 0 1-76.8-76.8V76.8a76.8 76.8 0 0 1 76.8-76.8z" fill="#E14A4A" p-id="5119"></path><path d="M640 0l320 320H768c-70.6944 0-128-57.3056-128-128V0z" fill="#FF7C83" p-id="5120"></path><path d="M441.408 443.776C416.768 429.8496 396.8 441.472 396.8 469.8624v212.3136c0 28.3392 20.032 39.9744 44.608 26.0864l189.3888-107.0464c24.6272-13.9136 24.576-36.5312 0-50.4192L441.408 443.776z" fill="#FFE2E4" p-id="5121"></path></svg>