<?xml version="1.0" standalone="no"?><!DOCTYPE svg PUBLIC "-//W3C//DTD SVG 1.1//EN"
        "http://www.w3.org/Graphics/SVG/1.1/DTD/svg11.dtd">
<svg t="1665635706474" class="icon" viewBox="0 0 1024 1024" version="1.1" xmlns="http://www.w3.org/2000/svg" p-id="9821"
     xmlns:xlink="http://www.w3.org/1999/xlink" width="200" height="200">
    <path d="M903.5 199H484.2l-83.9-84.9H120.7c-30.9 0-55.9 25.4-55.9 56.6v679.2c0 31.3 25 56.6 55.9 56.6h782.8c30.9 0 55.9-25.3 55.9-56.6V255.6c0-31.2-25-56.6-55.9-56.6z"
          fill="#aab5cb" p-id="9822"></path>
    <path d="M489.2 628.2c-16.6 33.9-51.6 57.3-92.1 57.3-56.5 0-102.2-45.4-102.2-101.5s45.8-101.5 102.2-101.5c31 0 58.8 13.7 77.5 35.3l58.5-43.5c-7-10.6-11-23.3-11-36.9 0-37.4 30.5-67.7 68.2-67.7 37.6 0 68.2 30.3 68.2 67.7 0 37.4-30.5 67.7-68.2 67.7-15.7 0-30.1-5.3-41.7-14.1l-61.1 45.5c7.6 14.2 11.9 30.4 11.9 47.5 0 7.9-0.9 15.5-2.6 22.9l60.9 24.2c14.2-21.6 38.7-35.8 66.6-35.8 43.9 0 79.5 35.3 79.5 78.9 0 43.6-35.6 78.9-79.5 78.9s-79.5-35.3-79.5-78.9c0-7.9 1.2-15.5 3.3-22.6l-58.9-23.4z"
          fill="#FFFFFF" p-id="9823"></path>
</svg>