<?xml version="1.0" standalone="no"?><!DOCTYPE svg PUBLIC "-//W3C//DTD SVG 1.1//EN"
        "http://www.w3.org/Graphics/SVG/1.1/DTD/svg11.dtd">
<svg t="1665634403723" class="icon" viewBox="0 0 1024 1024" version="1.1" xmlns="http://www.w3.org/2000/svg" p-id="1910"
     xmlns:xlink="http://www.w3.org/1999/xlink" width="200" height="200">
    <path d="M103.070255 861.537745A96.758691 96.758691 0 0 1 55.854545 778.314473V393.122909c0-31.427491 15.211055-60.881455 40.792437-79.015564L409.879273 92.16a96.069818 96.069818 0 0 1 111.150545 0l313.232291 221.928727A96.851782 96.851782 0 0 1 875.054545 393.122909v385.210182C875.054545 831.730036 831.8976 875.054545 778.686836 875.054545H720.151273l-13.218909 35.560728-69.371346-51.907491a96.814545 96.814545 0 0 1-7.689309-5.753018l-1.247418-0.930909h0.148945a96.6656 96.6656 0 0 1-33.978181-73.709382v-48.370037c0-53.434182-43.138327-96.721455-96.36771-96.721454h-65.9456c-53.229382 0-96.367709 43.305891-96.367709 96.721454v48.370037c0 53.434182-43.156945 96.740073-96.386327 96.740072h-48.034909L165.888 909.125818l-62.817745-47.588073z"
          fill="#bbc4d5" p-id="1911"></path>
    <path d="M226.694982 930.909091C173.484218 930.909091 130.327273 887.6032 130.327273 834.169018V448.977455c0-31.427491 15.211055-60.881455 40.792436-79.015564L484.352 148.014545a96.069818 96.069818 0 0 1 111.150545 0l313.232291 221.928728A96.851782 96.851782 0 0 1 949.527273 448.996073v385.172945C949.527273 887.6032 906.370327 930.909091 853.159564 930.909091h-87.505455c-53.229382 0-96.386327-43.305891-96.386327-96.740073v-48.370036c0-53.434182-43.138327-96.721455-96.367709-96.721455h-65.9456c-53.229382 0-96.367709 43.305891-96.367709 96.721455v48.370036c0 53.434182-43.156945 96.740073-96.386328 96.740073h-87.505454z"
          fill="#aab5cb" p-id="1912"></path>
</svg>