<svg width="501" height="501" viewBox="0 0 501 501" fill="none" xmlns="http://www.w3.org/2000/svg">
<g clip-path="url(#clip0_801_119)">
<path fill-rule="evenodd" clip-rule="evenodd" d="M385.777 0.474609H484.477C488.624 0.487795 492.597 2.14095 495.529 5.07318C498.461 8.00542 500.114 11.9786 500.127 16.1254V114.83C500.127 116.886 499.722 118.921 498.936 120.82C498.149 122.718 496.997 124.444 495.543 125.897C494.09 127.35 492.365 128.503 490.466 129.29C488.567 130.076 486.532 130.481 484.477 130.481H385.777C381.627 130.481 377.646 128.832 374.711 125.897C371.776 122.962 370.127 118.981 370.127 114.83V16.1254C370.14 11.9786 371.793 8.00542 374.726 5.07318C377.658 2.14095 381.631 0.487795 385.777 0.474609" fill="url(#paint0_linear_801_119)"/>
<path fill-rule="evenodd" clip-rule="evenodd" d="M181.877 318.74C178.967 315.797 177.333 311.828 177.327 307.69V208.935C177.327 204.797 178.97 200.829 181.896 197.903C184.821 194.978 188.789 193.334 192.927 193.334H230.127C287.177 193.334 307.427 169.783 307.427 114.38V41.5264C307.456 36.6599 305.783 31.9363 302.697 28.1739C299.61 24.4115 295.305 21.8472 290.527 20.9253C239.576 10.6016 186.656 16.9601 139.601 39.0593C92.5459 61.1586 53.8576 97.8238 29.2642 143.626C4.67076 189.429 -4.52039 241.934 3.05156 293.368C10.6235 344.802 34.556 392.43 71.3057 429.201C108.055 465.972 155.669 489.931 207.096 497.53C258.523 505.13 311.03 495.966 356.844 471.395C402.657 446.825 439.341 408.154 461.464 361.108C483.587 314.063 489.973 261.143 479.677 210.185C478.745 205.416 476.176 201.122 472.415 198.045C468.654 194.968 463.936 193.302 459.077 193.334H386.227C330.827 193.334 307.327 213.335 307.327 270.588V307.69C307.314 311.836 305.66 315.81 302.728 318.742C299.796 321.674 295.823 323.327 291.677 323.34H192.927C188.783 323.316 184.814 321.663 181.877 318.74" fill="url(#paint1_linear_801_119)"/>
</g>
<defs>
<linearGradient id="paint0_linear_801_119" x1="370.127" y1="130.481" x2="370.127" y2="0.474609" gradientUnits="userSpaceOnUse">
<stop stop-color="#FBC2EB"/>
<stop offset="1" stop-color="#A6C0EE"/>
</linearGradient>
<linearGradient id="paint1_linear_801_119" x1="0.470459" y1="500.13" x2="0.470459" y2="16.1055" gradientUnits="userSpaceOnUse">
<stop stop-color="#FBC2EB"/>
<stop offset="1" stop-color="#A6C0EE"/>
</linearGradient>
<clipPath id="clip0_801_119">
<rect width="499.656" height="499.655" fill="white" transform="translate(0.470703 0.474609)"/>
</clipPath>
</defs>
</svg>
