<?xml version="1.0" standalone="no"?><!DOCTYPE svg PUBLIC "-//W3C//DTD SVG 1.1//EN" "http://www.w3.org/Graphics/SVG/1.1/DTD/svg11.dtd"><svg t="1665814395681" class="icon" viewBox="0 0 1024 1024" version="1.1" xmlns="http://www.w3.org/2000/svg" p-id="2380" xmlns:xlink="http://www.w3.org/1999/xlink" width="128" height="128"><path d="M727.466667 714.666667H352c-46.933333 0-85.333333-38.4-85.333333-85.333334V275.2c0-46.933333 38.4-85.333333 85.333333-85.333333h332.8c70.4 0 128 57.6 128 128v309.333333c0 49.066667-38.4 87.466667-85.333333 87.466667z" fill="#93A8FF" p-id="2381"></path><path d="M682.666667 759.466667H307.2c-46.933333 0-85.333333-38.4-85.333333-85.333334V322.133333c0-46.933333 38.4-85.333333 85.333333-85.333333H682.666667c46.933333 0 85.333333 38.4 85.333333 85.333333v352c0 46.933333-38.4 85.333333-85.333333 85.333334z" fill="#FCCA1E" p-id="2382"></path><path d="M768 782.933333H256c-46.933333 0-85.333333-38.4-85.333333-85.333333V366.933333c0-46.933333 38.4-85.333333 85.333333-85.333333h213.333333c25.6 0 49.066667 14.933333 61.866667 38.4l17.066667 25.6c12.8 17.066667 34.133333 27.733333 55.466666 27.733333H768c46.933333 0 85.333333 38.4 85.333333 85.333334v238.933333c0 46.933333-38.4 85.333333-85.333333 85.333333z" fill="#2953FF" p-id="2383"></path></svg>