<?xml version="1.0" standalone="no"?><!DOCTYPE svg PUBLIC "-//W3C//DTD SVG 1.1//EN"
        "http://www.w3.org/Graphics/SVG/1.1/DTD/svg11.dtd">
<svg t="1665817019036" class="icon" viewBox="0 0 1024 1024" version="1.1" xmlns="http://www.w3.org/2000/svg" p-id="6441"
     xmlns:xlink="http://www.w3.org/1999/xlink" width="128" height="128">
    <path d="M517.483397 92.353778c-231.764227 0-419.646222 187.881996-419.646222 419.646222s187.881996 419.646222 419.646222 419.646222 419.646222-187.881996 419.646223-419.646222-187.881996-419.646222-419.646223-419.646222z m294.99263 277.086921L456.831875 725.085153c-1.17224 1.17224-2.604877 1.891418-4.054072 2.154224-1.667748 0.510258-3.305692 0.296221-4.371666-0.735133a5.610736 5.610736 0 0 1-1.066576-0.831767l-61.773188-61.772586a5.601705 5.601705 0 0 1-0.825746-1.056039L221.259524 499.36335c-1.777626-1.777927-1.225524-5.212163 1.23305-7.671337l61.772887-61.773188c2.458874-2.458573 5.893109-3.010977 7.671037-1.233351l159.970103 159.969802 289.892152-289.891851c2.784295-2.784295 7.034041-3.047703 9.492915-0.588829l61.772887 61.773188c2.458874 2.458573 2.195466 6.708921-0.588528 9.492915z"
          fill="#67c23a" p-id="6442"></path>
    <path d="M384.740326 662.843852a5.601705 5.601705 0 0 0 0.825746 1.056039l61.773188 61.772586a5.610736 5.610736 0 0 0 1.066576 0.831767c-0.013246-0.012644-0.028298-0.022879-0.041242-0.035824l-63.624268-63.624568z"
          fill="#67c23a" p-id="6443"></path>
</svg>