<?xml version="1.0" standalone="no"?><!DOCTYPE svg PUBLIC "-//W3C//DTD SVG 1.1//EN" "http://www.w3.org/Graphics/SVG/1.1/DTD/svg11.dtd"><svg t="1626700887947" class="icon" viewBox="0 0 1024 1024" version="1.1" xmlns="http://www.w3.org/2000/svg" p-id="3826" width="128" height="128" xmlns:xlink="http://www.w3.org/1999/xlink"><defs><style type="text/css"></style></defs><path d="M691.8 483.9c75.2 0 136.4-61.2 136.4-136.4S767 211.1 691.8 211.1s-136.4 61.2-136.4 136.4 61.2 136.4 136.4 136.4z m0-221.6c47 0 85.2 38.2 85.2 85.2s-38.2 85.2-85.2 85.2-85.2-38.2-85.2-85.2 38.3-85.2 85.2-85.2z" p-id="3827"></path><path d="M887.7 61.8H136.5C61.3 61.8 0.1 123 0.1 198.2V826c0 75.2 61.2 136.4 136.4 136.4h751.2c72.4 0 131.7-56.8 136-128.1l0.4 0.4V198.2c0-75.2-61.2-136.4-136.4-136.4zM51.3 198.2c0-47 38.2-85.2 85.2-85.2h751.2c47 0 85.2 38.2 85.2 85.2v512.9l-76.8-76.8-228.6 216.4-24.1-24.3L236.9 412 51.3 597.6V198.2z m0 627.8V674.1l185.4-185.4 369.9 373.2 23.4 23.9-0.2 0.2 18.6 18.6 6.6 6.7H136.5c-47-0.1-85.2-38.3-85.2-85.3z m921.6 0c0 47-38.2 85.2-85.2 85.2H727.6l-23.8-24L895 709.6l78 78V826z" p-id="3828"></path></svg>
