<?xml version="1.0" standalone="no"?><!DOCTYPE svg PUBLIC "-//W3C//DTD SVG 1.1//EN" "http://www.w3.org/Graphics/SVG/1.1/DTD/svg11.dtd"><svg t="1627138378128" class="icon" viewBox="0 0 1142 1024" version="1.1" xmlns="http://www.w3.org/2000/svg" p-id="1782" xmlns:xlink="http://www.w3.org/1999/xlink" width="223.046875" height="200"><defs><style type="text/css">@font-face { font-family: "feedback-iconfont"; src: url("//at.alicdn.com/t/font_1031158_1uhr8ri0pk5.eot?#iefix") format("embedded-opentype"), url("//at.alicdn.com/t/font_1031158_1uhr8ri0pk5.woff2") format("woff2"), url("//at.alicdn.com/t/font_1031158_1uhr8ri0pk5.woff") format("woff"), url("//at.alicdn.com/t/font_1031158_1uhr8ri0pk5.ttf") format("truetype"), url("//at.alicdn.com/t/font_1031158_1uhr8ri0pk5.svg#iconfont") format("svg"); }
</style></defs><path d="M891.392 992.649846C803.761231 1019.273846 663.630769 1024 512 1024c-291.603692 0-512-34.619077-512-118.153846 0-158.680615 152.182154-298.377846 370.924308-341.070769A295.424 295.424 0 0 1 492.307692 0a295.384615 295.384615 0 0 1 128.236308 561.545846c34.461538 6.537846 67.702154 16.029538 99.131077 28.120616A151.355077 151.355077 0 0 0 669.538462 702.385231c0 147.574154 141.824 234.456615 221.853538 290.264615zM860.278154 590.769231c34.264615 0 64.433231 16.147692 84.952615 40.763077 20.519385-24.576 50.727385-40.763077 84.913231-40.763077C1091.780923 590.769231 1142.153846 641.536 1142.153846 704c0 128.157538-142.651077 195.347692-190.779077 235.913846L945.230769 945.230769l-6.144-5.316923C890.88 899.308308 748.307692 832.157538 748.307692 704 748.307692 641.575385 798.680615 590.769231 860.317538 590.769231z" p-id="1783"></path></svg>
