<?xml version="1.0" standalone="no"?><!DOCTYPE svg PUBLIC "-//W3C//DTD SVG 1.1//EN" "http://www.w3.org/Graphics/SVG/1.1/DTD/svg11.dtd"><svg t="1621667791899" class="icon" viewBox="0 0 1024 1024" version="1.1" xmlns="http://www.w3.org/2000/svg" p-id="2383" xmlns:xlink="http://www.w3.org/1999/xlink" width="200" height="200"><defs><style type="text/css"></style></defs><path d="M669.806592 407.742464c9.547776 0 19.083264 0.794624 28.63104 1.5872-26.249216-122.486784-154.300416-213.157888-300.652544-213.157888-163.85024 0-298.27072 113.74592-298.27072 258.510848 0 82.724864 44.541952 151.12192 119.30624 204.417024l-29.42976 91.467776 103.40352-53.295104c37.376 7.151616 67.598336 15.126528 104.99072 15.126528 8.740864 0 18.290688 0 27.838464-0.796672-6.36928-20.688896-9.547776-42.170368-9.547776-63.65184C416.077824 515.131392 528.232448 407.742464 669.806592 407.742464L669.806592 407.742464zM509.1328 325.042176c22.276096 0 37.390336 15.097856 37.390336 38.172672 0 23.07072-15.11424 38.170624-37.390336 38.170624-22.263808 0-44.541952-15.101952-44.541952-38.170624C464.592896 340.140032 486.868992 325.042176 509.1328 325.042176L509.1328 325.042176zM300.740608 401.385472c-22.263808 0-44.541952-15.101952-44.541952-38.170624 0-23.074816 22.278144-38.172672 44.541952-38.172672 22.278144 0 37.390336 15.097856 37.390336 38.172672C338.132992 386.285568 323.018752 401.385472 300.740608 401.385472L300.740608 401.385472z" p-id="2384"></path><path d="M941.029376 643.97312c0-120.897536-118.515712-220.311552-252.936192-220.311552-141.570048 0-252.932096 99.414016-252.932096 220.311552 0 121.69216 111.362048 220.342272 252.932096 220.342272 30.22848 0 59.654144-7.979008 89.880576-15.128576l81.135616 45.350912-22.278144-75.575296C896.485376 772.847616 941.029376 712.398848 941.029376 643.97312L941.029376 643.97312zM606.175232 605.804544c-15.112192 0-29.427712-14.30528-29.427712-30.226432 0-15.126528 14.31552-30.224384 29.427712-30.224384 22.263808 0 37.376 15.097856 37.376 30.224384C643.551232 591.497216 628.43904 605.804544 606.175232 605.804544L606.175232 605.804544zM770.025472 605.804544c-15.112192 0-29.427712-14.30528-29.427712-30.226432 0-15.126528 14.31552-30.224384 29.427712-30.224384 22.265856 0 37.376 15.097856 37.376 30.224384C807.401472 591.497216 792.291328 605.804544 770.025472 605.804544L770.025472 605.804544z" p-id="2385"></path></svg>