<?xml version="1.0" standalone="no"?><!DOCTYPE svg PUBLIC "-//W3C//DTD SVG 1.1//EN" "http://www.w3.org/Graphics/SVG/1.1/DTD/svg11.dtd"><svg t="1626700665910" class="icon" viewBox="0 0 1024 1024" version="1.1" xmlns="http://www.w3.org/2000/svg" p-id="2038" width="128" height="128" xmlns:xlink="http://www.w3.org/1999/xlink"><defs><style type="text/css"></style></defs><path d="M978.11 46.73C948.47 16.59 909.13 0 867.3 0H156.76C114.93 0 75.59 16.59 45.95 46.73 16.76 76.45 0 117.58 0 159.62v704.72c0 42.65 16.32 82.75 45.95 112.93 29.66 30.14 69 46.73 110.81 46.73h710.55c41.81 0 81.15-16.59 110.81-46.73 29.62-30.18 45.93-70.28 45.93-112.93V159.62c-0.01-42.04-16.75-83.21-45.94-112.89zM69.17 159.62c0-49.08 39.3-89.05 87.59-89.05h710.55c48.29 0 87.59 39.98 87.59 89.05v704.72c0 49.12-39.3 89.09-87.59 89.09H156.76c-48.29 0-87.59-39.98-87.59-89.09V159.62z" p-id="2039"></path><path d="M228.64 858.16h224.69c19.06 0 34.58-15.81 34.58-35.28s-15.52-35.28-34.58-35.28H228.64c-19.06 0-34.58 15.81-34.58 35.28s15.52 35.28 34.58 35.28zM228.64 709.99h564.33c19.06 0 34.58-15.81 34.58-35.28s-15.52-35.28-34.58-35.28H228.64c-19.06 0-34.58 15.81-34.58 35.28s15.52 35.28 34.58 35.28zM273.95 539.63h473.69c44.07 0 79.91-36.11 79.91-80.53V268.97c0-44.42-35.84-80.53-79.91-80.53H273.95c-44.05 0-79.89 36.11-79.89 80.53V459.1c0 44.42 35.84 80.53 79.89 80.53zM757.42 459.1c0 5.48-4.38 9.92-9.78 9.92H273.95c-5.37 0-9.76-4.45-9.76-9.92V268.97c0-5.48 4.38-9.92 9.76-9.92h473.69c5.39 0 9.78 4.45 9.78 9.92V459.1z" p-id="2040"></path></svg>
