<?xml version="1.0" standalone="no"?><!DOCTYPE svg PUBLIC "-//W3C//DTD SVG 1.1//EN" "http://www.w3.org/Graphics/SVG/1.1/DTD/svg11.dtd"><svg class="icon" width="200px" height="200.00px" viewBox="0 0 1024 1024" version="1.1" xmlns="http://www.w3.org/2000/svg"><path d="M658.432 581.073455a149.550545 149.550545 0 0 0-14.336-34.443637c6.981818-9.402182 30.999273-44.450909 13.684364-61.765818l-8.890182-9.402182c-14.801455-14.801455-52.596364 8.331636-61.812364 14.289455a149.410909 149.410909 0 0 0-34.909091-14.382546c-1.954909-11.729455-10.565818-52.829091-34.909091-52.829091h-9.774545c-20.945455 0-32.954182 42.496-35.607273 53.154909a149.410909 149.410909 0 0 0-34.443636 14.429091c-8.424727-6.283636-44.683636-31.325091-62.370909-13.637818l-9.355637 7.912727c-15.406545 15.36 10.193455 56.040727 14.894546 63.162182-5.957818 10.565818-10.705455 21.876364-13.963637 33.838546-10.24 1.582545-53.853091 10.007273-53.85309 35.141818v9.774545c0 21.736727 45.754182 33.792 54.132363 35.84 3.258182 11.822545 8.052364 23.086545 13.963637 33.559273-4.887273 7.726545-29.509818 48.174545-14.24291 63.488l8.890182 7.354182c20.107636 20.107636 62.138182-12.893091 62.138182-12.893091l-1.954909-2.094545c11.217455 6.702545 23.319273 11.869091 35.933091 15.36 2.094545 8.610909 14.149818 54.039273 35.84 54.039272h9.774545c28.392727 0 35.421091-53.061818 35.421091-53.061818l-2.606545-0.046545c12.893091-3.258182 25.134545-8.238545 36.445091-14.615273 8.843636 5.911273 46.08 29.184 60.928 14.336l9.867636-9.867636c19.828364-19.828364-12.427636-60.369455-13.312-61.486546 6.144-10.705455 11.031273-22.248727 14.429091-34.443636 11.077818-2.792727 52.782545-14.754909 52.782545-35.514182v-9.728c0-27.554909-49.664-35.002182-52.782545-35.467636z m-146.385455 121.344a80.616727 80.616727 0 1 1 0-161.18691 80.616727 80.616727 0 0 1 0 161.18691z m321.629091-543.65091V106.216727c0-51.712-32.674909-82.618182-87.365818-82.618182-54.644364 0-87.319273 30.906182-87.319273 82.618182v52.596364h-59.112727v-52.596364c0-51.712-32.674909-82.618182-87.319273-82.618182-54.690909 0-87.319273 30.906182-87.319272 82.618182v52.596364H366.033455v-52.596364c0-51.712-32.581818-82.618182-87.319273-82.618182-54.644364 0-87.272727 30.906182-87.272727 82.618182v52.596364H91.182545v841.541818h841.63491V158.859636h-99.141819z m-127.906909-52.549818c0-25.506909 11.729455-35.84 40.541091-35.84 28.858182 0 40.541091 10.333091 40.541091 35.84v140.567273c0 25.506909-11.636364 35.84-40.541091 35.84-28.858182 0-40.494545-10.333091-40.494545-35.84v-140.567273z m-233.751272 0c0-25.506909 11.636364-35.84 40.494545-35.84s40.587636 10.333091 40.587636 35.84v140.567273c0 25.506909-11.729455 35.84-40.541091 35.84-28.858182 0-40.541091-10.333091-40.54109-35.84v-140.567273z m-233.844364 0c0-25.506909 11.729455-35.84 40.541091-35.84 28.858182 0 40.634182 10.333091 40.634182 35.84v140.567273c0 25.506909-11.776 35.84-40.634182 35.84s-40.541091-10.333091-40.541091-35.84v-140.567273z m624.500364 824.040728H161.326545V345.832727h701.34691v584.471273z" /></svg>